<svg width="21.230469" height="23.859375" viewBox="0 0 21.2305 23.8594" fill="none" xmlns="http://www.w3.org/2000/svg" xmlns:xlink="http://www.w3.org/1999/xlink">
	<desc>
			Created with Pixso.
	</desc>
	<defs>
		<clipPath id="clip7_3829">
			<rect width="21.230602" height="23.859650" fill="white" fill-opacity="0"/>
		</clipPath>
	</defs>
	<rect width="21.230602" height="23.859650" fill="#FFFFFF" fill-opacity="0"/>
	<g clip-path="url(#clip7_3829)">
		<path d="M15.92 20.87C15.92 19.77 16.71 18.88 17.69 18.88C18.66 18.88 19.46 19.77 19.46 20.87C19.46 21.97 18.66 22.86 17.69 22.86C16.71 22.86 15.92 21.97 15.92 20.87Z" fill="#FFFFFF" fill-opacity="1.000000" fill-rule="evenodd"/>
		<path d="M6.19 20.87C6.19 19.77 6.98 18.88 7.96 18.88C8.93 18.88 9.73 19.77 9.73 20.87C9.73 21.97 8.93 22.86 7.96 22.86C6.98 22.86 6.19 21.97 6.19 20.87Z" fill="#FFFFFF" fill-opacity="1.000000" fill-rule="evenodd"/>
		<path d="M0 0.99C0 0.44 0.39 0 0.88 0L4.42 0C4.84 0 5.2 0.33 5.29 0.79L6.03 4.97L20.34 4.97C20.6 4.97 20.85 5.1 21.02 5.33C21.19 5.55 21.26 5.86 21.21 6.15L19.79 14.49C19.67 15.18 19.34 15.8 18.85 16.24C18.37 16.67 17.77 16.91 17.15 16.9L8.57 16.9C7.95 16.91 7.34 16.67 6.86 16.24C6.37 15.8 6.04 15.18 5.92 14.5L4.44 6.2C4.44 6.17 4.43 6.14 4.43 6.11L3.69 1.98L0.88 1.98C0.39 1.98 0 1.54 0 0.99L0 0.99ZM6.38 6.95L7.66 14.11C7.7 14.34 7.81 14.54 7.97 14.69C8.13 14.83 8.33 14.91 8.54 14.91L8.56 14.91L17.16 14.91L17.17 14.91C17.38 14.91 17.58 14.83 17.75 14.69C17.91 14.54 18.02 14.34 18.06 14.11L19.27 6.95L6.38 6.95Z" fill="#FFFFFF" fill-opacity="1.000000" fill-rule="evenodd"/>
	</g>
</svg>
